<?xml version="1.0" standalone="no"?>
<!DOCTYPE svg PUBLIC "-//W3C//DTD SVG 20010904//EN"
 "http://www.w3.org/TR/2001/REC-SVG-20010904/DTD/svg10.dtd">
<svg version="1.0" xmlns="http://www.w3.org/2000/svg"
 width="300.000000pt" height="300.000000pt" viewBox="0 0 300.000000 300.000000"
 preserveAspectRatio="xMidYMid meet">
<metadata>
Created by potrace 1.11, written by Peter Selinger 2001-2013
</metadata>
<g transform="translate(0.000000,300.000000) scale(0.100000,-0.100000)"
fill="#000000" stroke="none">
<path d="M1257 1903 c-1 -1 -51 -3 -110 -5 -94 -2 -107 -5 -107 -20 0 -10 5
-19 10 -19 6 -1 15 -3 20 -4 6 -1 18 -3 28 -4 18 -1 19 -18 18 -326 -1 -356 1
-345 -59 -345 -22 0 -28 -4 -25 -17 3 -16 18 -18 136 -20 122 -1 132 0 132 17
0 14 -9 20 -37 22 l-38 3 -3 153 -3 152 53 -3 c64 -5 64 -5 168 -195 l81 -147
77 0 c69 0 77 2 77 19 0 13 -8 20 -29 22 -16 2 -32 7 -37 11 -22 24 -179 308
-171 311 5 1 30 16 56 33 77 48 105 139 72 232 -32 88 -106 125 -261 130 -26
1 -47 1 -48 0z m110 -52 c63 -18 94 -66 96 -149 2 -108 -54 -172 -155 -174
-97 -2 -88 -19 -88 160 0 87 3 162 7 165 9 10 103 8 140 -2z"/>
<path d="M2576 1895 c-89 -32 -130 -87 -127 -172 3 -99 49 -155 181 -223 127
-65 172 -116 172 -196 0 -89 -58 -135 -164 -129 -33 2 -71 11 -90 22 -28 16
-33 26 -45 87 -13 72 -26 91 -53 76 -22 -12 -22 -170 0 -186 51 -38 193 -58
275 -39 121 28 186 97 187 199 1 97 -54 162 -202 241 -104 55 -147 94 -156
142 -21 109 55 172 173 144 27 -7 54 -15 61 -20 6 -4 19 -44 28 -89 15 -75 19
-82 40 -82 28 0 26 -7 28 98 2 95 1 98 -100 125 -73 20 -155 21 -208 2z"/>
<path d="M1713 1888 c-8 -15 8 -27 42 -34 l35 -6 0 -328 c0 -357 3 -340 -56
-340 -17 0 -24 -6 -24 -18 0 -17 10 -19 130 -19 120 0 130 1 130 18 0 14 -7
19 -27 19 -50 0 -51 5 -49 170 1 155 1 155 24 158 15 2 29 -4 37 -15 228 -310
228 -310 157 -312 -16 -1 -22 -6 -20 -18 3 -14 21 -16 145 -17 104 -1 144 2
147 11 6 15 0 19 -47 27 -40 7 -23 -12 -249 284 l-77 101 103 123 c119 141
135 156 173 161 18 2 29 10 31 23 3 18 -4 19 -105 18 -92 -1 -108 -3 -111 -17
-2 -10 3 -18 12 -18 9 -1 21 -3 26 -4 6 -1 17 -3 25 -4 11 -1 -13 -36 -67
-103 -46 -57 -85 -105 -88 -108 -3 -3 -20 -23 -37 -46 -23 -29 -39 -40 -55
-39 -23 2 -23 3 -24 136 0 74 1 139 3 145 2 7 22 14 44 18 46 7 55 36 12 37
-145 4 -236 3 -240 -3z"/>
<path d="M565 1880 c-72 -4 -102 -11 -150 -34 -108 -52 -185 -85 -185 -81 0 2
-27 -23 -60 -57 -33 -34 -60 -70 -60 -79 0 -9 -9 -42 -19 -74 -13 -40 -16 -63
-10 -74 6 -9 22 -47 37 -86 26 -67 29 -70 62 -73 19 -1 58 -9 85 -16 167 -47
168 -47 195 -22 14 13 32 26 40 28 25 9 82 -27 141 -89 95 -98 105 -105 142
-95 18 5 37 7 44 5 17 -6 27 16 10 23 -9 3 -21 19 -28 35 -10 27 -10 33 7 49
16 16 26 18 56 11 36 -8 39 -7 59 26 18 29 26 34 53 31 24 -2 32 1 35 17 3 21
38 75 54 86 5 4 6 17 1 30 -10 31 -11 35 -13 60 0 11 -5 18 -10 15 -5 -3 -5
-21 -1 -40 5 -22 4 -38 -3 -45 -13 -13 -47 -15 -47 -2 0 5 10 7 23 4 20 -4 20
-3 6 9 -15 12 -15 17 -3 43 7 17 19 38 26 47 10 14 9 20 -4 35 -8 10 -34 51
-58 91 -23 40 -45 71 -47 68 -4 -4 8 -29 49 -96 11 -19 22 -45 24 -57 2 -19
-3 -23 -24 -24 -15 0 -52 -3 -83 -5 l-57 -3 21 49 20 48 55 -34 c30 -19 56
-33 58 -31 2 2 -21 21 -51 41 -61 40 -64 52 -24 109 l20 28 -28 12 c-32 14
-171 94 -192 111 -16 12 -38 13 -166 6z m145 -52 c6 -24 13 -48 15 -55 4 -12
-181 69 -199 88 -6 5 24 9 82 9 l91 0 11 -42z m-212 16 c14 9 192 -76 192 -92
0 -8 5 -10 13 -6 6 4 9 4 5 -1 -4 -4 -36 -25 -70 -46 l-63 -38 -14 30 c-8 16
-12 31 -9 35 4 3 34 8 67 11 34 3 61 9 61 13 0 5 -8 7 -17 5 -10 -2 -41 -6
-70 -9 l-52 -5 -16 50 c-10 28 -19 48 -22 45 -3 -3 2 -25 10 -50 9 -26 15 -46
14 -46 -25 -6 -107 -10 -107 -5 0 3 14 27 31 51 17 25 29 48 26 51 -3 3 -22
-20 -42 -52 l-37 -57 -46 6 c-56 7 -93 14 -98 19 -2 2 47 26 109 54 68 31 114
47 118 41 4 -6 11 -8 17 -4z m270 -7 c20 -12 49 -28 63 -36 14 -7 39 -23 54
-35 28 -23 29 -25 17 -65 -7 -22 -14 -41 -17 -41 -2 0 -27 16 -56 35 -30 19
-58 35 -64 35 -5 0 17 -18 50 -40 65 -44 69 -54 36 -117 l-16 -33 -42 95 c-30
68 -38 96 -30 102 7 5 40 9 74 8 34 0 60 2 57 6 -2 3 -33 6 -69 5 -36 -1 -70
1 -75 4 -14 8 -40 100 -29 100 5 0 26 -10 47 -23z m-440 -112 c28 -4 52 -10
52 -14 0 -4 -25 -31 -55 -61 -59 -58 -57 -58 -74 20 -15 63 -14 72 7 66 9 -2
41 -8 70 -11z m-89 -56 c7 -34 11 -63 9 -64 -2 -2 -27 8 -56 23 l-52 26 37 38
c20 21 40 38 44 38 3 0 12 -27 18 -61z m307 23 c13 -32 13 -33 -9 -26 -12 4
-42 16 -67 28 l-45 21 35 5 c61 10 71 7 86 -28z m143 -60 c-18 -51 -34 -92
-38 -92 -12 0 -73 99 -67 109 7 11 129 82 133 77 1 -1 -11 -43 -28 -94z m96
-10 c20 -46 35 -85 33 -87 -2 -2 -36 -5 -76 -7 l-73 -4 6 26 c16 63 59 170 66
163 4 -4 24 -46 44 -91z m-266 38 c6 0 12 -4 16 -9 5 -9 -49 -41 -69 -41 -9 0
-56 79 -56 94 0 2 22 -7 50 -20 27 -13 54 -24 59 -24z m-74 -71 c-4 -20 -67
-119 -77 -119 -3 0 -25 23 -47 51 -47 59 -46 61 25 133 l46 47 28 -48 c15 -26
26 -55 25 -64z m-253 25 c39 -20 48 -28 37 -35 -19 -13 -127 -69 -133 -69 -4
0 13 70 29 118 6 16 8 16 67 -14z m407 -30 c39 -55 52 -95 65 -207 l6 -48 -25
29 c-40 48 -45 72 -22 104 11 15 18 30 15 34 -3 3 -14 -8 -24 -25 -10 -17 -21
-31 -24 -31 -3 0 -31 33 -63 74 l-57 75 42 25 c24 14 44 26 45 26 1 0 20 -25
42 -56z m-370 -61 c-31 -72 -33 -73 -82 -49 l-43 21 66 37 c36 20 68 37 72 37
4 1 -2 -20 -13 -46z m290 -18 c28 -35 51 -67 51 -70 0 -5 -52 0 -105 10 -11 2
-32 4 -47 4 -16 1 -28 5 -28 11 0 15 61 110 70 110 4 0 31 -29 59 -65z m-178
-33 c30 -42 85 -182 71 -182 -4 1 -23 14 -42 30 -19 17 -39 30 -44 30 -6 0 5
-13 24 -30 37 -31 22 -43 -19 -14 -17 12 -21 22 -17 40 4 13 2 24 -3 24 -5 0
-11 20 -15 45 -3 25 -9 65 -12 90 -3 25 -10 43 -14 40 -4 -3 -4 -26 1 -52 5
-27 11 -63 14 -81 l6 -34 -34 27 c-46 35 -49 43 -25 96 34 73 37 72 109 -29z
m689 65 c0 -15 -32 -78 -38 -75 -4 2 -36 17 -72 33 l-65 30 55 5 c110 10 120
11 120 7z m-214 -69 c-4 -29 -10 -56 -14 -60 -4 -4 -33 17 -65 47 -65 59 -65
58 32 63 l54 2 -7 -52z m39 32 c4 -6 10 -8 15 -5 4 3 33 -6 65 -20 41 -19 56
-30 53 -43 -2 -10 -14 -18 -28 -19 -19 -2 -31 6 -53 38 -16 23 -31 39 -34 35
-3 -3 6 -19 21 -36 30 -37 33 -50 9 -50 -10 0 -34 -3 -54 -6 l-35 -6 10 61 c9
59 18 72 31 51z m-173 -12 c7 -7 37 -34 65 -60 l51 -47 -37 -24 c-20 -13 -46
-27 -58 -31 -20 -6 -22 -3 -28 51 -3 32 -8 73 -11 91 -4 35 -2 38 18 20z
m-511 -38 c24 -13 24 -17 -2 -59 l-21 -34 -18 40 c-10 22 -21 50 -25 62 -6 19
-4 20 20 11 14 -6 35 -15 46 -20z m328 -23 l75 -12 -32 -30 c-18 -16 -32 -34
-32 -39 0 -6 16 6 36 25 l36 34 -7 -40 c-4 -22 -10 -43 -14 -47 -12 -13 -87
31 -129 76 -49 52 -49 51 67 33z m-202 -92 c3 -23 1 -26 -14 -21 -10 4 -40 12
-67 17 -27 5 -51 10 -52 12 -2 1 7 22 18 45 l21 41 46 -33 c30 -23 46 -42 48
-61z m142 33 c37 -40 38 -44 24 -60 -9 -10 -19 -18 -24 -18 -4 0 -16 27 -27
60 -12 33 -19 60 -17 60 2 0 22 -19 44 -42z m602 24 c-15 -29 -63 -72 -72 -66
-15 9 -10 24 5 18 11 -4 13 0 9 17 -7 24 18 49 49 49 15 0 17 -4 9 -18z m-390
-64 c9 -16 5 -18 -31 -18 -43 0 -45 3 -33 60 l6 33 24 -29 c13 -16 28 -37 34
-46z m319 62 c0 -5 -2 -10 -4 -10 -3 0 -8 5 -11 10 -3 6 -1 10 4 10 6 0 11 -4
11 -10z m-20 -16 c11 -12 11 -17 -1 -28 -12 -11 -22 -10 -63 9 -36 17 -43 24
-30 28 40 10 82 6 94 -9z m-143 -71 c-2 -72 -19 -79 -78 -32 l-41 32 49 27
c69 40 72 39 70 -27z m105 27 c28 -17 28 -18 11 -39 l-18 -23 -34 47 c-32 44
-32 47 -11 40 13 -4 36 -15 52 -25z m-31 -53 c9 -16 7 -17 -18 -11 -40 10 -40
9 -41 51 l-1 38 25 -30 c14 -16 30 -38 35 -48z m-210 21 c0 -2 3 -25 6 -51 l5
-48 -23 24 c-13 13 -34 35 -46 49 l-23 24 40 2 c22 2 40 2 41 0z m78 -56 l23
-19 -30 -12 c-40 -17 -52 -8 -52 35 0 38 6 37 59 -4z m21 -47 c0 -10 -10 -15
-32 -15 l-33 1 30 14 c17 7 31 14 33 14 1 1 2 -6 2 -14z m36 -33 c-9 -8 -26
10 -26 26 1 15 2 15 15 -2 8 -11 13 -21 11 -24z m-51 -1 c10 -17 -12 -21 -25
-6 -10 12 -10 15 3 15 9 0 18 -4 22 -9z m42 -17 c-3 -3 -12 -4 -19 -1 -8 3 -5
6 6 6 11 1 17 -2 13 -5z"/>
</g>
</svg>
